<svg xmlns="http://www.w3.org/2000/svg" xmlns:xlink="http://www.w3.org/1999/xlink" width="500" zoomAndPan="magnify" viewBox="0 0 375 374.999991" height="500" preserveAspectRatio="xMidYMid meet" version="1.0"><defs><g/><clipPath id="8cd3b28432"><path d="M 147.3125 159.101562 L 179.527344 159.101562 L 179.527344 222.691406 L 147.3125 222.691406 Z M 147.3125 159.101562 " clip-rule="nonzero"/></clipPath><clipPath id="a19fd7fe96"><path d="M 179.464844 99.101562 L 210.851562 99.101562 L 210.851562 162.851562 L 179.464844 162.851562 Z M 179.464844 99.101562 " clip-rule="nonzero"/></clipPath></defs><g fill="#000000" fill-opacity="1"><g transform="translate(119.580774, 160.345645)"><g><path d="M 1.769531 -59.046875 L 1.769531 -58.457031 C 6.847656 -58.457031 7.203125 -54.265625 7.203125 -42.632812 L 7.203125 -16.414062 C 7.203125 -4.78125 6.847656 -0.589844 1.769531 -0.589844 L 1.769531 0 L 8.855469 0 C 15.351562 0 19.542969 1.179688 26.394531 1.179688 C 38.972656 1.179688 45.996094 -5.667969 45.996094 -15.882812 C 45.996094 -24.859375 38.617188 -30.644531 29.582031 -30.644531 C 23.914062 -30.644531 19.78125 -27.042969 17.300781 -27.042969 C 16.59375 -27.042969 15.589844 -27.222656 15.589844 -28.578125 C 15.589844 -35.132812 42.277344 -33.953125 42.277344 -49.363281 C 42.277344 -57.628906 34.660156 -60.226562 26.335938 -60.226562 C 21.140625 -60.226562 13.816406 -59.046875 8.621094 -59.046875 Z M 12.222656 -57.75 C 15.648438 -58.8125 19.074219 -59.402344 22.910156 -59.402344 C 30.113281 -59.402344 37.199219 -56.566406 37.199219 -49.246094 C 37.199219 -37.316406 15 -36.195312 15 -28.460938 C 15 -27.042969 16 -26.453125 17.066406 -26.453125 C 20.546875 -26.453125 24.5625 -29.996094 29.523438 -29.996094 C 36.90625 -29.996094 40.917969 -22.554688 40.917969 -15.46875 C 40.917969 -5.667969 34.011719 0.355469 23.027344 0.355469 C 18.660156 0.355469 15.824219 -0.234375 12.222656 -1.535156 Z M 12.222656 -57.75 "/></g></g></g><g fill="#000000" fill-opacity="1"><g transform="translate(191.167888, 220.345634)"><g><path d="M 1.769531 -58.457031 C 6.847656 -58.457031 7.203125 -54.265625 7.203125 -42.632812 L 7.203125 -16.414062 C 7.203125 -4.78125 6.847656 -0.589844 1.769531 -0.589844 L 1.769531 0 L 17.65625 0 L 17.65625 -0.589844 C 12.578125 -0.589844 12.222656 -4.78125 12.222656 -16.414062 L 12.222656 -25.980469 C 14.761719 -24.859375 20.609375 -23.207031 25.804688 -23.207031 C 38.914062 -23.207031 45.996094 -32.179688 45.996094 -41.804688 C 45.996094 -52.316406 38.972656 -60.226562 26.394531 -60.226562 C 19.542969 -60.226562 15.351562 -59.046875 8.855469 -59.046875 L 1.769531 -59.046875 Z M 12.222656 -26.570312 L 12.222656 -57.511719 C 15.824219 -58.8125 18.660156 -59.402344 23.027344 -59.402344 C 34.011719 -59.402344 40.917969 -52.433594 40.917969 -41.746094 C 40.917969 -34.660156 36.492188 -24.386719 24.742188 -24.386719 C 19.605469 -24.386719 15.234375 -25.332031 12.222656 -26.570312 Z M 12.222656 -26.570312 "/></g></g></g><path stroke-linecap="butt" transform="matrix(0, -0.75, 0.75, 0, 178.560725, 222.500405)" fill="none" stroke-linejoin="miter" d="M 0.000539452 1.002367 L 160.00055 1.002367 " stroke="#000000" stroke-width="2" stroke-opacity="1" stroke-miterlimit="4"/><g clip-path="url(#8cd3b28432)"><path fill="#100f0d" d="M 196.722656 200.8125 C 197 200.8125 197.222656 200.585938 197.222656 200.308594 C 197.222656 200.027344 197 199.804688 196.722656 199.804688 C 196.445312 199.804688 196.222656 200.027344 196.222656 200.308594 C 196.222656 200.585938 196.445312 200.8125 196.722656 200.8125 Z M 199.847656 198.25 C 200.125 198.25 200.347656 198.023438 200.347656 197.746094 C 200.347656 197.46875 200.125 197.242188 199.847656 197.242188 C 199.570312 197.242188 199.347656 197.46875 199.347656 197.746094 C 199.347656 198.023438 199.570312 198.25 199.847656 198.25 Z M 199.59375 190.339844 C 199.316406 190.339844 199.09375 190.566406 199.09375 190.84375 C 199.09375 191.121094 199.316406 191.347656 199.59375 191.347656 C 199.871094 191.347656 200.09375 191.121094 200.09375 190.84375 C 200.09375 190.566406 199.871094 190.339844 199.59375 190.339844 Z M 197.222656 171.511719 C 197.5 171.511719 197.726562 171.285156 197.726562 171.007812 C 197.726562 170.730469 197.5 170.503906 197.222656 170.503906 C 196.949219 170.503906 196.722656 170.730469 196.722656 171.007812 C 196.722656 171.285156 196.949219 171.511719 197.222656 171.511719 Z M 198.253906 183.582031 C 197.976562 183.582031 197.753906 183.804688 197.753906 184.085938 C 197.753906 184.363281 197.976562 184.589844 198.253906 184.589844 C 198.53125 184.589844 198.753906 184.363281 198.753906 184.085938 C 198.753906 183.804688 198.53125 183.582031 198.253906 183.582031 Z M 201.738281 185.640625 C 201.464844 185.640625 201.238281 185.867188 201.238281 186.148438 C 201.238281 186.425781 201.464844 186.652344 201.738281 186.652344 C 202.015625 186.652344 202.242188 186.425781 202.242188 186.148438 C 202.242188 185.867188 202.015625 185.640625 201.738281 185.640625 Z M 198.046875 218.199219 C 197.953125 218.648438 197.675781 219.03125 197.222656 219.03125 C 196.765625 219.03125 196.398438 218.65625 196.398438 218.199219 C 196.398438 217.742188 196.765625 217.367188 197.222656 217.367188 C 197.222656 217.367188 196.164062 217.148438 196.050781 218.28125 C 195.984375 218.960938 196.792969 219.167969 197.226562 219.167969 C 197.660156 219.167969 199.191406 219.078125 198.859375 216.324219 C 198.449219 212.960938 195.066406 207.25 179.199219 196.9375 C 180.21875 197.605469 199.617188 210.417969 198.046875 218.199219 Z M 179.15625 214.574219 L 179.15625 215.695312 C 182.308594 215.695312 183.167969 208.179688 179.15625 196.910156 C 184.355469 214.863281 179.15625 214.574219 179.15625 214.574219 Z M 179.167969 196.917969 C 179.179688 196.925781 179.1875 196.933594 179.199219 196.9375 C 179.1875 196.929688 179.175781 196.921875 179.167969 196.917969 C 179.160156 196.914062 179.15625 196.910156 179.15625 196.910156 C 179.15625 196.910156 179.261719 197 179.449219 197.160156 C 179.300781 197.027344 179.203125 196.941406 179.167969 196.917969 Z M 186.277344 207.71875 C 183.867188 210.097656 180.597656 201.542969 180.597656 201.542969 C 180.597656 201.542969 183.457031 211.011719 186.71875 208.660156 C 189.824219 206.421875 181.167969 198.65625 179.449219 197.160156 C 181.023438 198.582031 188.367188 205.65625 186.277344 207.71875 Z M 179.871094 158.660156 C 179.429688 158.335938 179.167969 158.191406 179.167969 158.191406 C 179.40625 158.34375 179.640625 158.503906 179.871094 158.660156 Z M 210.636719 177.660156 C 199.84375 178.53125 188.992188 184.351562 186.609375 185.699219 C 186.542969 186.273438 186.445312 186.828125 186.324219 187.355469 C 191.929688 184.855469 195.664062 184.855469 195.664062 184.855469 C 191.957031 185.589844 187.539062 187.679688 186.027344 188.460938 C 185.707031 189.480469 185.292969 190.394531 184.832031 191.214844 C 194.882812 188.625 200.347656 186.429688 200.347656 186.429688 C 195.746094 189.410156 185.097656 192.15625 183.960938 192.578125 C 183.375 193.394531 182.75 194.085938 182.15625 194.664062 C 192.839844 194.242188 197.097656 192.765625 197.097656 192.765625 C 191.984375 195.804688 181.507812 195.730469 180.9375 195.726562 C 180.21875 196.289062 179.636719 196.644531 179.355469 196.808594 L 179.878906 196.5625 C 179.878906 196.5625 181.222656 196.179688 185.941406 196.261719 C 190.53125 196.339844 195.53125 195.28125 200.710938 192.851562 C 210.71875 188.160156 210.636719 177.660156 210.636719 177.660156 Z M 190.792969 176.863281 C 191.976562 174.988281 193.660156 173.789062 193.660156 173.789062 C 192.359375 175.101562 191.472656 176.847656 190.976562 178.011719 C 191.226562 179.738281 191.285156 181.074219 191.296875 181.773438 C 192.933594 178.230469 196.222656 173.066406 196.222656 173.066406 C 195.035156 177.121094 193.503906 180.265625 192.78125 181.644531 C 193.445312 181.371094 194.15625 181.09375 194.914062 180.816406 C 196.566406 178.148438 196.972656 175.398438 196.972656 175.398438 C 197.03125 177.757812 196.464844 179.503906 196.082031 180.40625 C 196.980469 180.101562 197.933594 179.796875 198.945312 179.507812 L 198.839844 179.535156 C 202.082031 172.644531 199.390625 165.792969 199.390625 165.792969 C 194.460938 167.4375 191.003906 171.992188 190.003906 173.4375 C 190.351562 174.65625 190.605469 175.8125 190.792969 176.863281 Z M 179.152344 196.898438 C 179.152344 196.898438 179.152344 196.898438 179.148438 196.898438 C 179.148438 196.898438 179.148438 196.898438 179.144531 196.898438 L 179.148438 196.902344 Z M 178.945312 196.808594 C 178.660156 196.644531 178.078125 196.289062 177.359375 195.726562 C 176.792969 195.730469 166.316406 195.804688 161.203125 192.765625 C 161.203125 192.765625 165.457031 194.242188 176.144531 194.664062 C 175.546875 194.085938 174.925781 193.394531 174.335938 192.578125 C 173.203125 192.15625 162.550781 189.410156 157.953125 186.429688 C 157.953125 186.429688 163.414062 188.625 173.46875 191.214844 C 173.003906 190.394531 172.589844 189.480469 172.269531 188.460938 C 170.757812 187.679688 166.34375 185.589844 162.632812 184.855469 C 162.632812 184.855469 166.371094 184.855469 171.972656 187.355469 C 171.851562 186.828125 171.753906 186.273438 171.6875 185.699219 C 169.304688 184.351562 158.453125 178.53125 147.664062 177.660156 C 147.664062 177.660156 147.582031 188.160156 157.589844 192.851562 C 162.765625 195.28125 167.769531 196.339844 172.355469 196.261719 C 177.078125 196.179688 178.417969 196.5625 178.417969 196.5625 Z M 159.457031 179.535156 L 159.351562 179.507812 C 160.363281 179.796875 161.316406 180.101562 162.214844 180.40625 C 161.832031 179.503906 161.265625 177.757812 161.328125 175.398438 C 161.328125 175.398438 161.734375 178.148438 163.382812 180.816406 C 164.144531 181.09375 164.855469 181.371094 165.519531 181.644531 C 164.792969 180.265625 163.265625 177.121094 162.074219 173.066406 C 162.074219 173.066406 165.367188 178.230469 167.003906 181.773438 C 167.015625 181.074219 167.074219 179.738281 167.320312 178.011719 C 166.828125 176.847656 165.9375 175.101562 164.640625 173.789062 C 164.640625 173.789062 166.320312 174.988281 167.503906 176.863281 C 167.691406 175.8125 167.945312 174.65625 168.292969 173.4375 C 167.296875 171.992188 163.835938 167.4375 158.910156 165.792969 C 158.910156 165.792969 156.214844 172.644531 159.457031 179.535156 Z M 195.207031 202.6875 C 185.175781 201.535156 184.886719 198.355469 179.15625 196.910156 C 183.75 197.398438 185.882812 200.679688 195.394531 201.777344 C 204.082031 202.78125 209.507812 199.472656 209.507812 199.472656 C 207.789062 195.835938 203.1875 194.367188 201.488281 193.9375 C 198.136719 195.757812 194.484375 196.4375 191.039062 196.667969 C 192.230469 197.082031 194.375 197.746094 196.453125 197.996094 C 196.453125 197.996094 191.632812 197.675781 189.027344 196.757812 C 187.585938 196.792969 186.203125 196.769531 184.914062 196.746094 C 185.5 196.996094 186.601562 197.484375 187.386719 197.933594 C 188.503906 198.578125 191.65625 199.742188 193.652344 199.800781 C 193.863281 199.808594 189.375 199.773438 186.71875 198.25 C 185.097656 197.320312 183.945312 196.902344 183.292969 196.714844 C 181.679688 196.695312 180.273438 196.714844 179.171875 196.90625 C 179.171875 196.90625 179.167969 196.910156 179.167969 196.910156 C 179.167969 196.910156 179.171875 196.90625 179.171875 196.90625 C 179.167969 196.90625 179.167969 196.90625 179.164062 196.90625 C 179.164062 196.910156 179.164062 196.910156 179.167969 196.910156 C 179.167969 196.910156 179.164062 196.910156 179.164062 196.90625 L 179.167969 196.910156 L 179.132812 196.910156 L 179.136719 196.90625 C 179.136719 196.90625 179.132812 196.90625 179.132812 196.90625 C 179.132812 196.910156 179.132812 196.910156 179.132812 196.910156 C 179.132812 196.910156 179.132812 196.910156 179.132812 196.90625 C 179.132812 196.90625 179.128906 196.90625 179.128906 196.90625 C 179.128906 196.90625 179.132812 196.910156 179.132812 196.910156 C 179.132812 196.910156 179.128906 196.90625 179.128906 196.90625 C 178.027344 196.714844 176.617188 196.695312 175.003906 196.714844 C 174.351562 196.902344 173.203125 197.320312 171.582031 198.25 C 168.925781 199.773438 164.4375 199.808594 164.644531 199.800781 C 166.640625 199.742188 169.792969 198.578125 170.914062 197.933594 C 171.699219 197.484375 172.796875 196.996094 173.386719 196.746094 C 172.097656 196.769531 170.710938 196.792969 169.273438 196.757812 C 166.664062 197.675781 161.84375 197.996094 161.84375 197.996094 C 163.921875 197.746094 166.066406 197.082031 167.261719 196.667969 C 163.8125 196.4375 160.160156 195.757812 156.808594 193.9375 C 155.109375 194.367188 150.507812 195.835938 148.789062 199.472656 C 148.789062 199.472656 154.21875 202.78125 162.902344 201.777344 C 172.417969 200.679688 174.546875 197.398438 179.144531 196.910156 C 173.410156 198.355469 173.125 201.535156 163.089844 202.6875 C 153.933594 203.742188 148.46875 199.511719 148.46875 199.511719 C 150.1875 194.886719 155.921875 193.441406 156.324219 193.664062 C 155.898438 193.417969 155.476562 193.152344 155.0625 192.863281 C 146.75 187.082031 147.320312 177.257812 147.320312 177.257812 C 151.46875 177.644531 155.160156 178.371094 158.339844 179.226562 L 158.101562 179.160156 C 158.101562 179.160156 155.347656 172.921875 158.789062 165.410156 C 158.789062 165.410156 165.007812 167.507812 168.644531 172.289062 C 170.140625 167.679688 172.996094 162.421875 178.429688 158.660156 C 176.175781 160.320312 169.222656 166.699219 168.105469 182.789062 C 169.898438 183.644531 171.085938 184.347656 171.601562 184.671875 C 171.585938 184.402344 171.582031 184.125 171.582031 183.847656 C 171.582031 174.371094 176.550781 170.539062 179.132812 169.09375 C 179.132812 169.09375 172.488281 173.0625 172.488281 184.027344 C 172.488281 192.566406 178.082031 196.28125 179 196.832031 L 179.144531 196.898438 C 179.148438 196.898438 179.148438 196.898438 179.148438 196.894531 C 179.132812 196.886719 179.109375 196.867188 179.074219 196.839844 C 179.101562 196.859375 179.125 196.875 179.148438 196.894531 C 179.175781 196.875 179.199219 196.859375 179.222656 196.839844 C 179.1875 196.867188 179.164062 196.886719 179.148438 196.894531 C 179.152344 196.898438 179.152344 196.898438 179.152344 196.898438 L 179.296875 196.832031 C 180.21875 196.28125 185.808594 192.566406 185.808594 184.027344 C 185.808594 173.0625 179.167969 169.09375 179.167969 169.09375 C 181.746094 170.539062 186.71875 174.371094 186.71875 183.847656 C 186.71875 184.125 186.710938 184.402344 186.699219 184.671875 C 187.214844 184.347656 188.398438 183.644531 190.195312 182.789062 C 189.078125 166.699219 182.121094 160.320312 179.871094 158.660156 C 185.304688 162.421875 188.160156 167.679688 189.65625 172.289062 C 193.289062 167.507812 199.507812 165.410156 199.507812 165.410156 C 202.949219 172.921875 200.195312 179.160156 200.195312 179.160156 L 199.960938 179.226562 C 203.140625 178.371094 206.828125 177.644531 210.976562 177.257812 C 210.976562 177.257812 211.550781 187.082031 203.234375 192.863281 C 202.820312 193.152344 202.402344 193.417969 201.976562 193.664062 C 202.375 193.441406 208.109375 194.886719 209.832031 199.511719 C 209.832031 199.511719 204.363281 203.742188 195.207031 202.6875 Z M 179.5 217.605469 C 179.5 217.328125 179.277344 217.101562 179 217.101562 C 178.722656 217.101562 178.5 217.328125 178.5 217.605469 C 178.5 217.886719 178.722656 218.109375 179 218.109375 C 179.277344 218.109375 179.5 217.886719 179.5 217.605469 Z M 197.726562 220.347656 C 197.449219 220.347656 197.222656 220.574219 197.222656 220.855469 C 197.222656 221.132812 197.449219 221.359375 197.726562 221.359375 C 198 221.359375 198.226562 221.132812 198.226562 220.855469 C 198.226562 220.574219 198 220.347656 197.726562 220.347656 Z M 161.320312 220.347656 C 161.046875 220.347656 160.820312 220.574219 160.820312 220.855469 C 160.820312 221.132812 161.046875 221.359375 161.320312 221.359375 C 161.597656 221.359375 161.824219 221.132812 161.824219 220.855469 C 161.824219 220.574219 161.597656 220.347656 161.320312 220.347656 Z M 161.574219 199.804688 C 161.296875 199.804688 161.074219 200.027344 161.074219 200.308594 C 161.074219 200.585938 161.296875 200.8125 161.574219 200.8125 C 161.851562 200.8125 162.074219 200.585938 162.074219 200.308594 C 162.074219 200.027344 161.851562 199.804688 161.574219 199.804688 Z M 158.453125 197.242188 C 158.175781 197.242188 157.953125 197.46875 157.953125 197.746094 C 157.953125 198.023438 158.175781 198.25 158.453125 198.25 C 158.730469 198.25 158.953125 198.023438 158.953125 197.746094 C 158.953125 197.46875 158.730469 197.242188 158.453125 197.242188 Z M 158.703125 190.339844 C 158.425781 190.339844 158.203125 190.566406 158.203125 190.84375 C 158.203125 191.121094 158.425781 191.347656 158.703125 191.347656 C 158.980469 191.347656 159.203125 191.121094 159.203125 190.84375 C 159.203125 190.566406 158.980469 190.339844 158.703125 190.339844 Z M 161.074219 171.511719 C 161.351562 171.511719 161.574219 171.285156 161.574219 171.007812 C 161.574219 170.730469 161.351562 170.503906 161.074219 170.503906 C 160.796875 170.503906 160.574219 170.730469 160.574219 171.007812 C 160.574219 171.285156 160.796875 171.511719 161.074219 171.511719 Z M 178.648438 174.894531 C 178.648438 175.175781 178.871094 175.398438 179.148438 175.398438 C 179.425781 175.398438 179.648438 175.175781 179.648438 174.894531 C 179.648438 174.617188 179.425781 174.390625 179.148438 174.390625 C 178.871094 174.390625 178.648438 174.617188 178.648438 174.894531 Z M 183.410156 180.335938 C 183.410156 180.054688 183.183594 179.828125 182.910156 179.828125 C 182.632812 179.828125 182.40625 180.054688 182.40625 180.335938 C 182.40625 180.613281 182.632812 180.839844 182.910156 180.839844 C 183.183594 180.839844 183.410156 180.613281 183.410156 180.335938 Z M 174.386719 180.335938 C 174.386719 180.613281 174.609375 180.839844 174.886719 180.839844 C 175.164062 180.839844 175.386719 180.613281 175.386719 180.335938 C 175.386719 180.054688 175.164062 179.828125 174.886719 179.828125 C 174.609375 179.828125 174.386719 180.054688 174.386719 180.335938 Z M 160.007812 184.589844 C 160.285156 184.589844 160.507812 184.363281 160.507812 184.085938 C 160.507812 183.804688 160.285156 183.582031 160.007812 183.582031 C 159.730469 183.582031 159.507812 183.804688 159.507812 184.085938 C 159.507812 184.363281 159.730469 184.589844 160.007812 184.589844 Z M 156.558594 185.640625 C 156.28125 185.640625 156.058594 185.867188 156.058594 186.148438 C 156.058594 186.425781 156.28125 186.652344 156.558594 186.652344 C 156.835938 186.652344 157.058594 186.425781 157.058594 186.148438 C 157.058594 185.867188 156.835938 185.640625 156.558594 185.640625 Z M 179 219.882812 C 179.589844 219.882812 180.070312 220.511719 180.070312 221.285156 C 180.070312 222.0625 179.589844 222.691406 179 222.691406 C 179.769531 222.691406 180.394531 222.0625 180.394531 221.285156 C 180.394531 220.511719 179.769531 219.882812 179 219.882812 Z M 177.929688 221.285156 C 177.929688 220.511719 178.410156 219.882812 179 219.882812 C 178.230469 219.882812 177.609375 220.511719 177.609375 221.285156 C 177.609375 222.0625 178.230469 222.691406 179 222.691406 C 178.410156 222.691406 177.929688 222.0625 177.929688 221.285156 Z M 180.351562 163.96875 C 180.351562 164.945312 179.746094 165.738281 179 165.738281 C 179.972656 165.738281 180.757812 164.945312 180.757812 163.96875 C 180.757812 162.988281 179.972656 162.195312 179 162.195312 C 179.746094 162.195312 180.351562 162.988281 180.351562 163.96875 Z M 177.242188 163.96875 C 177.242188 164.945312 178.03125 165.738281 179 165.738281 C 178.253906 165.738281 177.648438 164.945312 177.648438 163.96875 C 177.648438 162.988281 178.253906 162.195312 179 162.195312 C 178.03125 162.195312 177.242188 162.988281 177.242188 163.96875 Z M 175.589844 192.925781 C 173.417969 189.519531 176.074219 187.15625 177.457031 187.4375 C 178.871094 187.726562 179.132812 189.421875 179.132812 189.421875 C 179.132812 189.375 179.128906 189.332031 179.125 189.285156 L 179.167969 189.421875 L 179.3125 188.90625 C 179.503906 188.382812 179.9375 187.621094 180.839844 187.4375 C 182.222656 187.15625 184.878906 189.519531 182.707031 192.925781 C 181.300781 195.128906 179.628906 196.519531 179.222656 196.839844 C 183.902344 193.257812 184.335938 190.863281 184.101562 189.441406 C 184.054688 189.164062 183.984375 188.898438 183.894531 188.652344 C 184.03125 187.582031 184.273438 184.710938 183.398438 182.179688 C 183.398438 182.179688 183.722656 185.101562 183.117188 187.480469 C 182.726562 187.140625 182.234375 186.945312 181.644531 186.945312 C 180.746094 186.941406 179.957031 187.421875 179.523438 188.148438 C 179.523438 185.578125 179.167969 179.253906 179.167969 179.253906 C 178.714844 182.078125 178.777344 188.148438 178.777344 188.148438 C 178.34375 187.425781 177.554688 186.941406 176.652344 186.945312 C 176.050781 186.949219 175.546875 187.152344 175.152344 187.503906 C 174.539062 185.121094 174.867188 182.179688 174.867188 182.179688 C 173.972656 184.769531 174.246094 187.714844 174.378906 188.726562 C 174.300781 188.949219 174.238281 189.1875 174.199219 189.441406 C 173.960938 190.863281 174.394531 193.257812 179.074219 196.839844 C 178.671875 196.519531 177 195.128906 175.589844 192.925781 Z M 179.097656 196.9375 C 179.109375 196.933594 179.121094 196.925781 179.128906 196.917969 C 179.097656 196.941406 179 197.027344 178.851562 197.160156 C 179.039062 197 179.144531 196.910156 179.144531 196.910156 C 179.140625 196.910156 179.136719 196.914062 179.128906 196.917969 C 179.125 196.921875 179.113281 196.929688 179.097656 196.9375 Z M 159.441406 216.324219 C 159.105469 219.078125 160.640625 219.167969 161.074219 219.167969 C 161.503906 219.167969 162.316406 218.960938 162.246094 218.28125 C 162.132812 217.148438 161.078125 217.367188 161.078125 217.367188 C 161.53125 217.367188 161.898438 217.742188 161.898438 218.199219 C 161.898438 218.65625 161.53125 219.03125 161.078125 219.03125 C 160.621094 219.03125 160.34375 218.648438 160.253906 218.199219 C 158.683594 210.417969 178.078125 197.605469 179.097656 196.9375 C 163.234375 207.25 159.851562 212.960938 159.441406 216.324219 Z M 179.144531 215.695312 L 179.144531 214.574219 C 179.144531 214.574219 173.945312 214.863281 179.144531 196.910156 C 175.128906 208.179688 175.988281 215.695312 179.144531 215.695312 Z M 171.582031 208.660156 C 174.839844 211.011719 177.703125 201.542969 177.703125 201.542969 C 177.703125 201.542969 174.433594 210.097656 172.023438 207.71875 C 169.933594 205.65625 177.273438 198.585938 178.851562 197.160156 C 177.128906 198.65625 168.476562 206.421875 171.582031 208.660156 Z M 179.132812 158.191406 C 178.894531 158.34375 178.660156 158.503906 178.429688 158.660156 C 178.871094 158.335938 179.132812 158.191406 179.132812 158.191406 " fill-opacity="1" fill-rule="nonzero"/></g><g clip-path="url(#a19fd7fe96)"><path fill="#100f0d" d="M 196.753906 141.226562 C 197.027344 141.226562 197.25 141.003906 197.25 140.730469 C 197.25 140.453125 197.027344 140.230469 196.753906 140.230469 C 196.480469 140.230469 196.261719 140.453125 196.261719 140.730469 C 196.261719 141.003906 196.480469 141.226562 196.753906 141.226562 Z M 199.839844 138.695312 C 200.117188 138.695312 200.335938 138.472656 200.335938 138.195312 C 200.335938 137.921875 200.117188 137.699219 199.839844 137.699219 C 199.570312 137.699219 199.347656 137.921875 199.347656 138.195312 C 199.347656 138.472656 199.570312 138.695312 199.839844 138.695312 Z M 199.59375 130.875 C 199.320312 130.875 199.097656 131.101562 199.097656 131.375 C 199.097656 131.652344 199.320312 131.875 199.59375 131.875 C 199.867188 131.875 200.085938 131.652344 200.085938 131.375 C 200.085938 131.101562 199.867188 130.875 199.59375 130.875 Z M 197.25 112.269531 C 197.523438 112.269531 197.746094 112.046875 197.746094 111.769531 C 197.746094 111.496094 197.523438 111.269531 197.25 111.269531 C 196.976562 111.269531 196.753906 111.496094 196.753906 111.769531 C 196.753906 112.046875 196.976562 112.269531 197.25 112.269531 Z M 198.265625 124.195312 C 197.992188 124.195312 197.773438 124.417969 197.773438 124.695312 C 197.773438 124.96875 197.992188 125.195312 198.265625 125.195312 C 198.539062 125.195312 198.761719 124.96875 198.761719 124.695312 C 198.761719 124.417969 198.539062 124.195312 198.265625 124.195312 Z M 201.714844 126.234375 C 201.441406 126.234375 201.21875 126.457031 201.21875 126.734375 C 201.21875 127.007812 201.441406 127.230469 201.714844 127.230469 C 201.988281 127.230469 202.210938 127.007812 202.210938 126.734375 C 202.210938 126.457031 201.988281 126.234375 201.714844 126.234375 Z M 198.0625 158.414062 C 197.972656 158.855469 197.699219 159.234375 197.246094 159.234375 C 196.796875 159.234375 196.433594 158.867188 196.433594 158.414062 C 196.433594 157.960938 196.796875 157.589844 197.246094 157.589844 C 197.246094 157.589844 196.203125 157.375 196.089844 158.492188 C 196.023438 159.164062 196.824219 159.367188 197.253906 159.367188 C 197.679688 159.367188 199.195312 159.28125 198.863281 156.5625 C 198.460938 153.234375 195.117188 147.589844 179.433594 137.398438 C 180.441406 138.058594 199.613281 150.722656 198.0625 158.414062 Z M 179.390625 154.832031 L 179.390625 155.9375 C 182.507812 155.9375 183.355469 148.511719 179.390625 137.371094 C 184.527344 155.117188 179.390625 154.832031 179.390625 154.832031 Z M 179.402344 137.378906 C 179.414062 137.386719 179.421875 137.390625 179.433594 137.398438 C 179.417969 137.390625 179.410156 137.382812 179.402344 137.378906 C 179.394531 137.375 179.390625 137.371094 179.390625 137.371094 C 179.390625 137.371094 179.492188 137.460938 179.679688 137.617188 C 179.53125 137.488281 179.4375 137.402344 179.402344 137.378906 Z M 186.429688 148.054688 C 184.046875 150.40625 180.8125 141.949219 180.8125 141.949219 C 180.8125 141.949219 183.640625 151.308594 186.867188 148.984375 C 189.933594 146.769531 181.378906 139.097656 179.679688 137.617188 C 181.238281 139.023438 188.496094 146.015625 186.429688 148.054688 Z M 180.09375 99.566406 C 179.660156 99.246094 179.398438 99.101562 179.398438 99.101562 C 179.636719 99.253906 179.867188 99.410156 180.09375 99.566406 Z M 210.507812 118.34375 C 199.839844 119.207031 189.113281 124.960938 186.757812 126.289062 C 186.691406 126.859375 186.597656 127.40625 186.476562 127.925781 C 192.015625 125.457031 195.710938 125.457031 195.710938 125.457031 C 192.042969 126.183594 187.679688 128.25 186.183594 129.023438 C 185.867188 130.027344 185.457031 130.929688 185 131.742188 C 194.9375 129.179688 200.335938 127.011719 200.335938 127.011719 C 195.789062 129.957031 185.261719 132.671875 184.140625 133.089844 C 183.558594 133.894531 182.945312 134.582031 182.355469 135.148438 C 192.917969 134.734375 197.125 133.273438 197.125 133.273438 C 192.070312 136.277344 181.714844 136.207031 181.152344 136.199219 C 180.441406 136.757812 179.867188 137.109375 179.585938 137.269531 L 180.105469 137.027344 C 180.105469 137.027344 181.433594 136.648438 186.097656 136.730469 C 190.632812 136.808594 195.578125 135.761719 200.695312 133.359375 C 210.589844 128.722656 210.507812 118.34375 210.507812 118.34375 Z M 190.894531 117.558594 C 192.0625 115.707031 193.726562 114.519531 193.726562 114.519531 C 192.441406 115.816406 191.5625 117.542969 191.074219 118.691406 C 191.320312 120.398438 191.378906 121.71875 191.390625 122.410156 C 193.007812 118.910156 196.261719 113.804688 196.261719 113.804688 C 195.085938 117.8125 193.574219 120.917969 192.855469 122.28125 C 193.511719 122.011719 194.214844 121.738281 194.96875 121.464844 C 196.597656 118.828125 197 116.109375 197 116.109375 C 197.058594 118.441406 196.5 120.164062 196.121094 121.058594 C 197.007812 120.757812 197.953125 120.457031 198.953125 120.171875 L 198.847656 120.199219 C 202.054688 113.386719 199.390625 106.617188 199.390625 106.617188 C 194.519531 108.242188 191.101562 112.742188 190.113281 114.167969 C 190.457031 115.375 190.710938 116.519531 190.894531 117.558594 Z M 179.386719 137.359375 C 179.386719 137.359375 179.386719 137.359375 179.382812 137.359375 C 179.382812 137.359375 179.382812 137.359375 179.378906 137.359375 L 179.382812 137.363281 Z M 179.179688 137.269531 C 178.902344 137.109375 178.324219 136.757812 177.617188 136.199219 C 177.054688 136.207031 166.699219 136.277344 161.644531 133.273438 C 161.644531 133.273438 165.847656 134.734375 176.414062 135.148438 C 175.824219 134.582031 175.207031 133.894531 174.628906 133.089844 C 173.503906 132.671875 162.976562 129.957031 158.429688 127.011719 C 158.429688 127.011719 163.828125 129.179688 173.769531 131.742188 C 173.308594 130.929688 172.898438 130.027344 172.582031 129.023438 C 171.089844 128.25 166.722656 126.183594 163.058594 125.457031 C 163.058594 125.457031 166.75 125.457031 172.289062 127.925781 C 172.167969 127.40625 172.074219 126.859375 172.007812 126.289062 C 169.652344 124.960938 158.925781 119.207031 148.257812 118.34375 C 148.257812 118.34375 148.179688 128.722656 158.070312 133.359375 C 163.191406 135.761719 168.132812 136.808594 172.667969 136.730469 C 177.335938 136.648438 178.660156 137.027344 178.660156 137.027344 Z M 159.917969 120.199219 L 159.816406 120.171875 C 160.816406 120.457031 161.757812 120.757812 162.644531 121.058594 C 162.265625 120.164062 161.707031 118.441406 161.765625 116.109375 C 161.765625 116.109375 162.167969 118.828125 163.800781 121.464844 C 164.550781 121.738281 165.253906 122.011719 165.910156 122.28125 C 165.191406 120.917969 163.683594 117.8125 162.507812 113.804688 C 162.507812 113.804688 165.757812 118.910156 167.375 122.410156 C 167.386719 121.71875 167.445312 120.398438 167.691406 118.691406 C 167.203125 117.542969 166.324219 115.816406 165.039062 114.519531 C 165.039062 114.519531 166.703125 115.707031 167.875 117.558594 C 168.058594 116.519531 168.308594 115.375 168.652344 114.167969 C 167.667969 112.742188 164.25 108.242188 159.378906 106.617188 C 159.378906 106.617188 156.714844 113.386719 159.917969 120.199219 Z M 195.257812 143.082031 C 185.339844 141.941406 185.058594 138.796875 179.390625 137.371094 C 183.929688 137.855469 186.039062 141.097656 195.441406 142.183594 C 204.027344 143.171875 209.394531 139.90625 209.394531 139.90625 C 207.695312 136.308594 203.144531 134.859375 201.464844 134.433594 C 198.152344 136.234375 194.542969 136.902344 191.136719 137.132812 C 192.3125 137.539062 194.433594 138.195312 196.488281 138.441406 C 196.488281 138.441406 191.722656 138.125 189.148438 137.21875 C 187.722656 137.253906 186.355469 137.230469 185.082031 137.207031 C 185.664062 137.457031 186.75 137.9375 187.523438 138.382812 C 188.628906 139.019531 191.746094 140.167969 193.71875 140.230469 C 193.925781 140.234375 189.488281 140.199219 186.867188 138.695312 C 185.261719 137.777344 184.125 137.363281 183.480469 137.179688 C 181.886719 137.15625 180.492188 137.175781 179.40625 137.367188 C 179.40625 137.367188 179.398438 137.371094 179.398438 137.371094 C 179.398438 137.371094 179.402344 137.367188 179.40625 137.367188 C 179.402344 137.367188 179.398438 137.367188 179.398438 137.367188 C 179.398438 137.371094 179.398438 137.371094 179.398438 137.371094 C 179.398438 137.371094 179.398438 137.371094 179.398438 137.367188 L 179.398438 137.371094 L 179.367188 137.371094 L 179.371094 137.367188 C 179.371094 137.367188 179.367188 137.367188 179.367188 137.367188 C 179.367188 137.371094 179.367188 137.371094 179.367188 137.371094 C 179.367188 137.371094 179.367188 137.371094 179.367188 137.367188 C 179.367188 137.367188 179.363281 137.367188 179.363281 137.367188 C 179.363281 137.367188 179.367188 137.371094 179.367188 137.371094 C 179.367188 137.371094 179.363281 137.367188 179.363281 137.367188 C 178.273438 137.175781 176.882812 137.15625 175.289062 137.179688 C 174.640625 137.363281 173.503906 137.777344 171.902344 138.695312 C 169.277344 140.199219 164.839844 140.234375 165.046875 140.230469 C 167.019531 140.167969 170.136719 139.019531 171.242188 138.382812 C 172.019531 137.9375 173.105469 137.457031 173.6875 137.207031 C 172.414062 137.230469 171.042969 137.253906 169.621094 137.21875 C 167.042969 138.125 162.277344 138.441406 162.277344 138.441406 C 164.332031 138.195312 166.453125 137.539062 167.632812 137.132812 C 164.222656 136.902344 160.613281 136.234375 157.300781 134.433594 C 155.621094 134.859375 151.074219 136.308594 149.375 139.90625 C 149.375 139.90625 154.742188 143.171875 163.324219 142.183594 C 172.730469 141.097656 174.835938 137.855469 179.378906 137.371094 C 173.710938 138.796875 173.425781 141.941406 163.507812 143.082031 C 154.460938 144.125 149.054688 139.941406 149.054688 139.941406 C 150.757812 135.371094 156.425781 133.941406 156.820312 134.164062 C 156.398438 133.917969 155.984375 133.65625 155.574219 133.371094 C 147.355469 127.660156 147.921875 117.945312 147.921875 117.945312 C 152.023438 118.328125 155.667969 119.046875 158.8125 119.890625 L 158.578125 119.828125 C 158.578125 119.828125 155.859375 113.664062 159.257812 106.234375 C 159.257812 106.234375 165.40625 108.3125 169 113.035156 C 170.476562 108.480469 173.300781 103.28125 178.671875 99.566406 C 176.445312 101.207031 169.570312 107.511719 168.464844 123.414062 C 170.242188 124.261719 171.410156 124.957031 171.921875 125.273438 C 171.910156 125.007812 171.902344 124.738281 171.902344 124.460938 C 171.902344 115.09375 176.816406 111.308594 179.367188 109.878906 C 179.367188 109.878906 172.800781 113.800781 172.800781 124.640625 C 172.800781 133.078125 178.328125 136.746094 179.238281 137.292969 L 179.378906 137.359375 C 179.382812 137.359375 179.382812 137.359375 179.382812 137.355469 C 179.367188 137.347656 179.34375 137.328125 179.308594 137.300781 C 179.335938 137.320312 179.359375 137.339844 179.382812 137.355469 C 179.410156 137.339844 179.433594 137.320312 179.457031 137.300781 C 179.421875 137.328125 179.398438 137.347656 179.382812 137.355469 C 179.386719 137.359375 179.386719 137.359375 179.386719 137.359375 L 179.53125 137.292969 C 180.441406 136.746094 185.96875 133.078125 185.96875 124.640625 C 185.96875 113.800781 179.398438 109.878906 179.398438 109.878906 C 181.949219 111.308594 186.867188 115.09375 186.867188 124.460938 C 186.867188 124.738281 186.859375 125.007812 186.84375 125.273438 C 187.355469 124.957031 188.527344 124.261719 190.300781 123.414062 C 189.199219 107.511719 182.320312 101.207031 180.09375 99.566406 C 185.46875 103.28125 188.289062 108.480469 189.769531 113.035156 C 193.359375 108.3125 199.507812 106.234375 199.507812 106.234375 C 202.910156 113.664062 200.1875 119.828125 200.1875 119.828125 L 199.953125 119.890625 C 203.097656 119.046875 206.742188 118.328125 210.84375 117.945312 C 210.84375 117.945312 211.410156 127.660156 203.191406 133.371094 C 202.78125 133.65625 202.367188 133.917969 201.945312 134.164062 C 202.34375 133.941406 208.011719 135.371094 209.710938 139.941406 C 209.710938 139.941406 204.308594 144.125 195.257812 143.082031 Z M 179.730469 157.828125 C 179.730469 157.550781 179.507812 157.328125 179.234375 157.328125 C 178.960938 157.328125 178.742188 157.550781 178.742188 157.828125 C 178.742188 158.101562 178.960938 158.324219 179.234375 158.324219 C 179.507812 158.324219 179.730469 158.101562 179.730469 157.828125 Z M 197.746094 160.535156 C 197.472656 160.535156 197.25 160.761719 197.25 161.035156 C 197.25 161.3125 197.472656 161.535156 197.746094 161.535156 C 198.019531 161.535156 198.238281 161.3125 198.238281 161.035156 C 198.238281 160.761719 198.019531 160.535156 197.746094 160.535156 Z M 161.761719 160.535156 C 161.488281 160.535156 161.265625 160.761719 161.265625 161.035156 C 161.265625 161.3125 161.488281 161.535156 161.761719 161.535156 C 162.035156 161.535156 162.257812 161.3125 162.257812 161.035156 C 162.257812 160.761719 162.035156 160.535156 161.761719 160.535156 Z M 162.011719 140.230469 C 161.738281 140.230469 161.515625 140.453125 161.515625 140.730469 C 161.515625 141.003906 161.738281 141.226562 162.011719 141.226562 C 162.285156 141.226562 162.507812 141.003906 162.507812 140.730469 C 162.507812 140.453125 162.285156 140.230469 162.011719 140.230469 Z M 158.925781 137.699219 C 158.652344 137.699219 158.429688 137.921875 158.429688 138.195312 C 158.429688 138.472656 158.652344 138.695312 158.925781 138.695312 C 159.199219 138.695312 159.421875 138.472656 159.421875 138.195312 C 159.421875 137.921875 159.199219 137.699219 158.925781 137.699219 Z M 159.175781 130.875 C 158.902344 130.875 158.679688 131.101562 158.679688 131.375 C 158.679688 131.652344 158.902344 131.875 159.175781 131.875 C 159.445312 131.875 159.667969 131.652344 159.667969 131.375 C 159.667969 131.101562 159.445312 130.875 159.175781 130.875 Z M 161.515625 112.269531 C 161.789062 112.269531 162.011719 112.046875 162.011719 111.769531 C 162.011719 111.496094 161.789062 111.269531 161.515625 111.269531 C 161.242188 111.269531 161.023438 111.496094 161.023438 111.769531 C 161.023438 112.046875 161.242188 112.269531 161.515625 112.269531 Z M 178.886719 115.613281 C 178.886719 115.886719 179.109375 116.109375 179.382812 116.109375 C 179.65625 116.109375 179.878906 115.886719 179.878906 115.613281 C 179.878906 115.335938 179.65625 115.113281 179.382812 115.113281 C 179.109375 115.113281 178.886719 115.335938 178.886719 115.613281 Z M 183.59375 120.988281 C 183.59375 120.710938 183.371094 120.488281 183.097656 120.488281 C 182.828125 120.488281 182.605469 120.710938 182.605469 120.988281 C 182.605469 121.261719 182.828125 121.488281 183.097656 121.488281 C 183.371094 121.488281 183.59375 121.261719 183.59375 120.988281 Z M 174.675781 120.988281 C 174.675781 121.261719 174.898438 121.488281 175.171875 121.488281 C 175.445312 121.488281 175.664062 121.261719 175.664062 120.988281 C 175.664062 120.710938 175.445312 120.488281 175.171875 120.488281 C 174.898438 120.488281 174.675781 120.710938 174.675781 120.988281 Z M 160.460938 125.195312 C 160.734375 125.195312 160.957031 124.96875 160.957031 124.695312 C 160.957031 124.417969 160.734375 124.195312 160.460938 124.195312 C 160.1875 124.195312 159.96875 124.417969 159.96875 124.695312 C 159.96875 124.96875 160.1875 125.195312 160.460938 125.195312 Z M 157.054688 126.234375 C 156.78125 126.234375 156.558594 126.457031 156.558594 126.734375 C 156.558594 127.007812 156.78125 127.230469 157.054688 127.230469 C 157.328125 127.230469 157.546875 127.007812 157.546875 126.734375 C 157.546875 126.457031 157.328125 126.234375 157.054688 126.234375 Z M 179.234375 160.078125 C 179.820312 160.078125 180.292969 160.699219 180.292969 161.464844 C 180.292969 162.230469 179.820312 162.851562 179.234375 162.851562 C 179.996094 162.851562 180.613281 162.230469 180.613281 161.464844 C 180.613281 160.699219 179.996094 160.078125 179.234375 160.078125 Z M 178.179688 161.464844 C 178.179688 160.699219 178.652344 160.078125 179.234375 160.078125 C 178.476562 160.078125 177.859375 160.699219 177.859375 161.464844 C 177.859375 162.230469 178.476562 162.851562 179.234375 162.851562 C 178.652344 162.851562 178.179688 162.230469 178.179688 161.464844 Z M 180.570312 104.8125 C 180.570312 105.777344 179.972656 106.5625 179.234375 106.5625 C 180.195312 106.5625 180.972656 105.777344 180.972656 104.8125 C 180.972656 103.84375 180.195312 103.058594 179.234375 103.058594 C 179.972656 103.058594 180.570312 103.84375 180.570312 104.8125 Z M 177.5 104.8125 C 177.5 105.777344 178.277344 106.5625 179.234375 106.5625 C 178.5 106.5625 177.902344 105.777344 177.902344 104.8125 C 177.902344 103.84375 178.5 103.058594 179.234375 103.058594 C 178.277344 103.058594 177.5 103.84375 177.5 104.8125 Z M 175.867188 133.433594 C 173.71875 130.066406 176.34375 127.730469 177.710938 128.007812 C 179.105469 128.292969 179.367188 129.96875 179.367188 129.96875 C 179.367188 129.921875 179.363281 129.878906 179.359375 129.835938 L 179.398438 129.96875 L 179.542969 129.460938 C 179.734375 128.941406 180.160156 128.191406 181.054688 128.007812 C 182.421875 127.730469 185.046875 130.066406 182.898438 133.433594 C 181.507812 135.613281 179.855469 136.984375 179.457031 137.300781 C 184.082031 133.761719 184.511719 131.394531 184.277344 129.992188 C 184.230469 129.714844 184.164062 129.453125 184.074219 129.210938 C 184.207031 128.152344 184.449219 125.316406 183.582031 122.8125 C 183.582031 122.8125 183.90625 125.699219 183.304688 128.050781 C 182.921875 127.714844 182.433594 127.523438 181.851562 127.519531 C 180.960938 127.515625 180.183594 127.996094 179.753906 128.710938 C 179.753906 126.167969 179.398438 119.917969 179.398438 119.917969 C 178.953125 122.710938 179.015625 128.710938 179.015625 128.710938 C 178.585938 127.996094 177.808594 127.515625 176.917969 127.519531 C 176.320312 127.523438 175.824219 127.726562 175.433594 128.074219 C 174.828125 125.71875 175.152344 122.8125 175.152344 122.8125 C 174.265625 125.371094 174.535156 128.28125 174.667969 129.28125 C 174.589844 129.503906 174.53125 129.738281 174.488281 129.992188 C 174.257812 131.394531 174.683594 133.761719 179.308594 137.300781 C 178.910156 136.984375 177.257812 135.613281 175.867188 133.433594 Z M 179.332031 137.398438 C 179.34375 137.390625 179.355469 137.386719 179.363281 137.378906 C 179.332031 137.402344 179.234375 137.488281 179.089844 137.617188 C 179.273438 137.460938 179.378906 137.371094 179.378906 137.371094 C 179.375 137.371094 179.371094 137.375 179.363281 137.378906 C 179.359375 137.382812 179.347656 137.390625 179.332031 137.398438 Z M 159.902344 156.5625 C 159.574219 159.28125 161.085938 159.367188 161.515625 159.367188 C 161.941406 159.367188 162.746094 159.164062 162.675781 158.492188 C 162.5625 157.375 161.519531 157.589844 161.519531 157.589844 C 161.96875 157.589844 162.332031 157.960938 162.332031 158.414062 C 162.332031 158.867188 161.96875 159.234375 161.519531 159.234375 C 161.070312 159.234375 160.792969 158.855469 160.703125 158.414062 C 159.152344 150.722656 178.324219 138.058594 179.332031 137.398438 C 163.652344 147.589844 160.304688 153.234375 159.902344 156.5625 Z M 179.378906 155.9375 L 179.378906 154.832031 C 179.378906 154.832031 174.238281 155.117188 179.378906 137.371094 C 175.410156 148.511719 176.261719 155.9375 179.378906 155.9375 Z M 171.902344 148.984375 C 175.125 151.308594 177.953125 141.949219 177.953125 141.949219 C 177.953125 141.949219 174.722656 150.40625 172.335938 148.054688 C 170.273438 146.015625 177.53125 139.023438 179.089844 137.617188 C 177.386719 139.097656 168.832031 146.769531 171.902344 148.984375 Z M 179.367188 99.101562 C 179.128906 99.253906 178.898438 99.410156 178.671875 99.566406 C 179.109375 99.246094 179.367188 99.101562 179.367188 99.101562 " fill-opacity="1" fill-rule="nonzero"/></g><g fill="#000000" fill-opacity="1"><g transform="translate(109.811767, 254.190862)"><g><path d="M 6.453125 -3.308594 C 6.453125 -2.5625 5.820312 -1.945312 5.070312 -1.945312 L 3.492188 -1.945312 L 3.492188 -4.671875 L 5.070312 -4.671875 C 5.820312 -4.671875 6.453125 -4.039062 6.453125 -3.308594 Z M 5.671875 -8.03125 C 5.671875 -7.316406 5.070312 -6.71875 4.355469 -6.71875 L 3.492188 -6.71875 L 3.492188 -9.34375 L 4.355469 -9.34375 C 5.070312 -9.34375 5.671875 -8.761719 5.671875 -8.03125 Z M 8.996094 -3.242188 C 8.996094 -4.773438 7.964844 -5.785156 6.699219 -6.085938 C 7.550781 -6.46875 8.046875 -7.332031 8.046875 -8.480469 C 8.046875 -10.027344 6.816406 -11.308594 4.886719 -11.308594 L 0.996094 -11.308594 L 0.996094 0 L 5.570312 0 C 7.730469 0 8.996094 -1.296875 8.996094 -3.242188 Z M 8.996094 -3.242188 "/></g></g></g><g fill="#000000" fill-opacity="1"><g transform="translate(120.880621, 254.190862)"><g><path d="M 9.726562 -5.671875 C 9.726562 -3.925781 8.148438 -2.328125 6.402344 -2.328125 C 4.65625 -2.328125 3.074219 -3.925781 3.074219 -5.671875 C 3.074219 -7.414062 4.65625 -8.996094 6.402344 -8.996094 C 8.148438 -8.996094 9.726562 -7.414062 9.726562 -5.671875 Z M 12.222656 -5.652344 C 12.222656 -8.78125 9.527344 -11.472656 6.402344 -11.472656 C 3.277344 -11.472656 0.582031 -8.78125 0.582031 -5.652344 C 0.582031 -2.527344 3.277344 0.167969 6.402344 0.167969 C 9.527344 0.167969 12.222656 -2.527344 12.222656 -5.652344 Z M 12.222656 -5.652344 "/></g></g></g><g fill="#000000" fill-opacity="1"><g transform="translate(135.588641, 254.190862)"><g><path d="M 5.386719 -1.761719 C 4.15625 -1.761719 3.09375 -2.378906 3.027344 -3.722656 L 0.5 -3.722656 C 0.515625 -0.964844 2.792969 0.265625 5.289062 0.265625 C 7.597656 0.265625 9.976562 -0.714844 9.976562 -3.375 C 9.976562 -7.683594 3.441406 -6.234375 3.441406 -8.246094 C 3.441406 -9.09375 4.421875 -9.429688 5.121094 -9.429688 C 6.367188 -9.429688 7.050781 -9.046875 7.183594 -7.863281 L 9.59375 -7.863281 C 9.511719 -10.441406 7.414062 -11.472656 5.089844 -11.472656 C 3.027344 -11.472656 0.863281 -10.375 0.863281 -8.046875 C 0.863281 -3.875 7.398438 -5.289062 7.398438 -3.09375 C 7.398438 -2.078125 6.167969 -1.761719 5.386719 -1.761719 Z M 5.386719 -1.761719 "/></g></g></g><g fill="#000000" fill-opacity="1"><g transform="translate(147.970258, 254.190862)"><g><path d="M 5.386719 -1.761719 C 4.15625 -1.761719 3.09375 -2.378906 3.027344 -3.722656 L 0.5 -3.722656 C 0.515625 -0.964844 2.792969 0.265625 5.289062 0.265625 C 7.597656 0.265625 9.976562 -0.714844 9.976562 -3.375 C 9.976562 -7.683594 3.441406 -6.234375 3.441406 -8.246094 C 3.441406 -9.09375 4.421875 -9.429688 5.121094 -9.429688 C 6.367188 -9.429688 7.050781 -9.046875 7.183594 -7.863281 L 9.59375 -7.863281 C 9.511719 -10.441406 7.414062 -11.472656 5.089844 -11.472656 C 3.027344 -11.472656 0.863281 -10.375 0.863281 -8.046875 C 0.863281 -3.875 7.398438 -5.289062 7.398438 -3.09375 C 7.398438 -2.078125 6.167969 -1.761719 5.386719 -1.761719 Z M 5.386719 -1.761719 "/></g></g></g><g fill="#000000" fill-opacity="1"><g transform="translate(160.351878, 254.190862)"><g><path d="M 9.726562 -5.671875 C 9.726562 -3.925781 8.148438 -2.328125 6.402344 -2.328125 C 4.65625 -2.328125 3.074219 -3.925781 3.074219 -5.671875 C 3.074219 -7.414062 4.65625 -8.996094 6.402344 -8.996094 C 8.148438 -8.996094 9.726562 -7.414062 9.726562 -5.671875 Z M 10.308594 -1.414062 C 11.472656 -2.476562 12.222656 -4.007812 12.222656 -5.652344 C 12.222656 -8.78125 9.527344 -11.472656 6.402344 -11.472656 C 3.277344 -11.472656 0.582031 -8.78125 0.582031 -5.652344 C 0.582031 -2.527344 3.277344 0.167969 6.402344 0.167969 C 6.851562 0.167969 7.300781 0.117188 7.730469 0 L 12.886719 0 L 12.886719 -1.980469 L 11.539062 -1.980469 Z M 10.308594 -1.414062 "/></g></g></g><g fill="#000000" fill-opacity="1"><g transform="translate(175.159598, 254.190862)"><g/></g></g><g fill="#000000" fill-opacity="1"><g transform="translate(181.226689, 254.190862)"><g><path d="M 3.492188 -4.039062 L 5.238281 -4.039062 C 7.066406 -4.039062 8.695312 -5.386719 8.695312 -7.683594 C 8.695312 -9.828125 7.066406 -11.308594 5.238281 -11.308594 L 0.996094 -11.308594 L 0.996094 0 L 3.492188 0 Z M 4.820312 -9.34375 C 5.554688 -9.34375 6.320312 -8.710938 6.320312 -7.683594 C 6.320312 -6.601562 5.554688 -6.003906 4.820312 -6.003906 L 3.492188 -6.003906 L 3.492188 -9.34375 Z M 4.820312 -9.34375 "/></g></g></g><g fill="#000000" fill-opacity="1"><g transform="translate(192.079527, 254.190862)"><g><path d="M 7.148438 -4.324219 L 4.289062 -4.324219 L 5.71875 -8.347656 Z M 11.375 0 L 6.785156 -11.308594 L 4.671875 -11.308594 L 0.0820312 0 L 2.761719 0 L 3.574219 -2.277344 L 7.882812 -2.277344 L 8.695312 0 Z M 11.375 0 "/></g></g></g><g fill="#000000" fill-opacity="1"><g transform="translate(205.441562, 254.190862)"><g><path d="M 3.492188 -4.039062 L 3.507812 -4.039062 L 6.203125 0 L 9.359375 0 L 6.117188 -4.15625 C 7.550781 -4.507812 8.695312 -5.769531 8.695312 -7.683594 C 8.695312 -9.828125 7.066406 -11.308594 5.238281 -11.308594 L 0.996094 -11.308594 L 0.996094 0 L 3.492188 0 Z M 4.820312 -9.34375 C 5.554688 -9.34375 6.320312 -8.710938 6.320312 -7.683594 C 6.320312 -6.601562 5.554688 -6.003906 4.820312 -6.003906 L 3.492188 -6.003906 L 3.492188 -9.34375 Z M 4.820312 -9.34375 "/></g></g></g><g fill="#000000" fill-opacity="1"><g transform="translate(216.510418, 254.190862)"><g><path d="M 7.382812 -4.539062 L 7.382812 -6.800781 L 3.492188 -6.800781 L 3.492188 -9.046875 L 7.550781 -9.046875 L 7.550781 -11.308594 L 0.996094 -11.308594 L 0.996094 0 L 3.492188 0 L 3.492188 -4.539062 Z M 7.382812 -4.539062 "/></g></g></g><g fill="#000000" fill-opacity="1"><g transform="translate(226.798267, 254.190862)"><g><path d="M 7.597656 -11.308594 L 7.597656 -4.773438 C 7.597656 -3.210938 7.132812 -2.328125 5.421875 -2.328125 C 3.722656 -2.328125 3.242188 -3.210938 3.242188 -4.773438 L 3.242188 -11.308594 L 0.75 -11.308594 L 0.75 -4.40625 C 0.75 -1.398438 2.476562 0.167969 5.421875 0.167969 C 8.363281 0.167969 10.09375 -1.398438 10.09375 -4.40625 L 10.09375 -11.308594 Z M 7.597656 -11.308594 "/></g></g></g><g fill="#000000" fill-opacity="1"><g transform="translate(239.545451, 254.190862)"><g><path d="M 15.097656 0 L 12.902344 -11.308594 L 9.941406 -11.308594 L 7.597656 -3.375 L 5.238281 -11.308594 L 2.277344 -11.308594 L 0.0820312 0 L 2.828125 0 L 4.15625 -7.796875 L 6.367188 0 L 8.8125 0 L 11.023438 -7.796875 L 12.355469 0 Z M 15.097656 0 "/></g></g></g><g fill="#000000" fill-opacity="1"><g transform="translate(256.629727, 254.190862)"><g><path d="M 7.550781 -2.261719 L 3.492188 -2.261719 L 3.492188 -4.539062 L 7.382812 -4.539062 L 7.382812 -6.800781 L 3.492188 -6.800781 L 3.492188 -9.046875 L 7.550781 -9.046875 L 7.550781 -11.308594 L 0.996094 -11.308594 L 0.996094 0 L 7.550781 0 Z M 7.550781 -2.261719 "/></g></g></g><g fill="#000000" fill-opacity="1"><g transform="translate(134.726539, 273.212824)"><g><path d="M 5.863281 -2.457031 C 5.566406 -1.820312 4.84375 -1.382812 4.097656 -1.382812 C 2.925781 -1.382812 1.988281 -2.382812 1.988281 -3.617188 C 1.988281 -4.84375 2.925781 -5.851562 4.097656 -5.851562 C 4.832031 -5.851562 5.554688 -5.449219 5.851562 -4.800781 L 7.628906 -4.800781 C 7.140625 -6.277344 5.746094 -7.34375 4.097656 -7.34375 C 2.042969 -7.34375 0.371094 -5.671875 0.371094 -3.617188 C 0.371094 -1.5625 2.042969 0.105469 4.097656 0.105469 C 5.746094 0.105469 7.152344 -0.96875 7.640625 -2.457031 Z M 5.863281 -2.457031 "/></g></g></g><g fill="#000000" fill-opacity="1"><g transform="translate(147.274916, 273.212824)"><g><path d="M 6.226562 -3.628906 C 6.226562 -2.511719 5.214844 -1.488281 4.097656 -1.488281 C 2.980469 -1.488281 1.96875 -2.511719 1.96875 -3.628906 C 1.96875 -4.746094 2.980469 -5.757812 4.097656 -5.757812 C 5.214844 -5.757812 6.226562 -4.746094 6.226562 -3.628906 Z M 7.820312 -3.617188 C 7.820312 -5.621094 6.097656 -7.34375 4.097656 -7.34375 C 2.097656 -7.34375 0.371094 -5.621094 0.371094 -3.617188 C 0.371094 -1.617188 2.097656 0.105469 4.097656 0.105469 C 6.097656 0.105469 7.820312 -1.617188 7.820312 -3.617188 Z M 7.820312 -3.617188 "/></g></g></g><g fill="#000000" fill-opacity="1"><g transform="translate(160.110597, 273.212824)"><g><path d="M 0.636719 0 L 4.832031 0 L 4.832031 -1.449219 L 2.234375 -1.449219 L 2.234375 -7.238281 L 0.636719 -7.238281 Z M 0.636719 0 "/></g></g></g><g fill="#000000" fill-opacity="1"><g transform="translate(169.956246, 273.212824)"><g><path d="M 0.636719 0 L 4.832031 0 L 4.832031 -1.449219 L 2.234375 -1.449219 L 2.234375 -7.238281 L 0.636719 -7.238281 Z M 0.636719 0 "/></g></g></g><g fill="#000000" fill-opacity="1"><g transform="translate(179.801895, 273.212824)"><g><path d="M 4.832031 -1.449219 L 2.234375 -1.449219 L 2.234375 -2.90625 L 4.726562 -2.90625 L 4.726562 -4.351562 L 2.234375 -4.351562 L 2.234375 -5.789062 L 4.832031 -5.789062 L 4.832031 -7.238281 L 0.636719 -7.238281 L 0.636719 0 L 4.832031 0 Z M 4.832031 -1.449219 "/></g></g></g><g fill="#000000" fill-opacity="1"><g transform="translate(189.913562, 273.212824)"><g><path d="M 5.863281 -2.457031 C 5.566406 -1.820312 4.84375 -1.382812 4.097656 -1.382812 C 2.925781 -1.382812 1.988281 -2.382812 1.988281 -3.617188 C 1.988281 -4.84375 2.925781 -5.851562 4.097656 -5.851562 C 4.832031 -5.851562 5.554688 -5.449219 5.851562 -4.800781 L 7.628906 -4.800781 C 7.140625 -6.277344 5.746094 -7.34375 4.097656 -7.34375 C 2.042969 -7.34375 0.371094 -5.671875 0.371094 -3.617188 C 0.371094 -1.5625 2.042969 0.105469 4.097656 0.105469 C 5.746094 0.105469 7.152344 -0.96875 7.640625 -2.457031 Z M 5.863281 -2.457031 "/></g></g></g><g fill="#000000" fill-opacity="1"><g transform="translate(202.46194, 273.212824)"><g><path d="M 3.714844 -5.789062 L 5.777344 -5.789062 L 5.777344 -7.238281 L 0.0546875 -7.238281 L 0.0546875 -5.789062 L 2.117188 -5.789062 L 2.117188 0 L 3.714844 0 Z M 3.714844 -5.789062 "/></g></g></g><g fill="#000000" fill-opacity="1"><g transform="translate(212.935389, 273.212824)"><g><path d="M 2.234375 0 L 2.234375 -7.238281 L 0.636719 -7.238281 L 0.636719 0 Z M 2.234375 0 "/></g></g></g><g fill="#000000" fill-opacity="1"><g transform="translate(220.450723, 273.212824)"><g><path d="M 6.226562 -3.628906 C 6.226562 -2.511719 5.214844 -1.488281 4.097656 -1.488281 C 2.980469 -1.488281 1.96875 -2.511719 1.96875 -3.628906 C 1.96875 -4.746094 2.980469 -5.757812 4.097656 -5.757812 C 5.214844 -5.757812 6.226562 -4.746094 6.226562 -3.628906 Z M 7.820312 -3.617188 C 7.820312 -5.621094 6.097656 -7.34375 4.097656 -7.34375 C 2.097656 -7.34375 0.371094 -5.621094 0.371094 -3.617188 C 0.371094 -1.617188 2.097656 0.105469 4.097656 0.105469 C 6.097656 0.105469 7.820312 -1.617188 7.820312 -3.617188 Z M 7.820312 -3.617188 "/></g></g></g><g fill="#000000" fill-opacity="1"><g transform="translate(233.286405, 273.212824)"><g><path d="M 6.320312 0 L 6.320312 -7.238281 L 4.726562 -7.238281 L 4.726562 -2.722656 L 2.234375 -7.238281 L 0.636719 -7.238281 L 0.636719 0 L 2.234375 0 L 2.234375 -4.511719 L 4.726562 0 Z M 6.320312 0 "/></g></g></g><path stroke-linecap="butt" transform="matrix(0.75, -0.000000000000000279, 0.000000000000000279, 0.75, 122.77816, 258.527589)" fill="none" stroke-linejoin="miter" d="M -0.00108785 0.499672 L 173.077049 0.499672 " stroke="#000000" stroke-width="1" stroke-opacity="1" stroke-miterlimit="4"/></svg>